<?xml version="1.0" standalone="no"?>
<!DOCTYPE svg PUBLIC "-//W3C//DTD SVG 20010904//EN"
 "http://www.w3.org/TR/2001/REC-SVG-20010904/DTD/svg10.dtd">
<svg version="1.0" xmlns="http://www.w3.org/2000/svg"
 width="494.000000pt" height="505.000000pt" viewBox="0 0 494.000000 505.000000"
 preserveAspectRatio="xMidYMid meet">

<g transform="translate(0.000000,505.000000) scale(0.100000,-0.100000)"
fill="#000000" stroke="none">
<path d="M1382 4960 c-50 -30 -95 -50 -113 -50 -71 0 -158 -68 -226 -177 -44
-72 -123 -274 -123 -318 0 -17 -2 -17 -10 -5 -5 8 -10 86 -10 173 0 89 -4 157
-9 157 -32 0 -134 -179 -166 -292 -9 -32 -20 -58 -24 -58 -4 0 -14 12 -22 26
-41 77 -174 153 -339 191 -58 14 -148 36 -200 48 -52 13 -99 19 -104 15 -5 -5
16 -21 45 -36 69 -35 121 -74 116 -88 -2 -6 16 -33 41 -61 57 -64 121 -154
166 -233 19 -34 34 -63 33 -63 -1 -1 -51 -3 -112 -4 -115 -3 -170 -14 -170
-33 0 -6 37 -29 83 -52 58 -29 103 -62 151 -109 70 -69 108 -118 98 -127 -3
-3 -25 0 -48 7 -49 14 -303 16 -357 2 -49 -12 -42 -27 16 -35 105 -16 229 -83
305 -167 42 -47 47 -66 14 -58 -18 5 -265 11 -304 8 -7 -1 -13 -5 -13 -10 0
-5 23 -11 51 -15 118 -16 402 -147 383 -177 -3 -6 -1 -16 5 -23 19 -22 -19
-43 -89 -49 -59 -6 -265 -59 -278 -72 -13 -12 14 -18 115 -27 60 -4 138 -15
175 -24 70 -17 167 -70 152 -83 -5 -4 -41 -17 -80 -29 -70 -22 -154 -72 -154
-92 0 -14 11 -13 54 5 19 8 68 20 109 26 95 14 140 2 192 -51 l39 -40 -46 -48
c-79 -81 -99 -141 -119 -347 -17 -185 -11 -381 17 -561 27 -180 94 -456 126
-523 39 -82 170 -138 346 -150 l97 -6 3 -31 c3 -32 3 -32 -45 -31 -96 1 -148
-50 -147 -142 1 -96 59 -177 143 -202 47 -14 96 0 142 39 l31 25 51 -18 c100
-36 186 -16 228 52 15 24 21 57 26 133 l5 100 -36 36 c-35 35 -39 36 -89 32
-28 -3 -59 -9 -68 -12 -12 -5 -23 2 -38 23 l-22 30 36 15 c19 8 35 20 35 25 0
15 -14 14 -55 -3 -21 -9 -37 -11 -40 -5 -6 8 5 14 64 34 7 3 34 -8 60 -24 25
-17 71 -41 101 -54 104 -45 146 -52 320 -52 207 0 283 19 357 90 26 25 48 43
50 41 2 -1 -2 -38 -8 -80 -26 -191 46 -357 204 -470 68 -49 152 -90 165 -82 4
2 21 -19 37 -47 48 -87 157 -188 255 -236 115 -56 157 -60 295 -26 92 22 127
26 215 23 l105 -3 9 28 c7 20 7 34 -3 49 -9 15 -11 47 -6 127 8 112 7 116 -52
249 -3 8 4 12 24 12 52 0 186 73 246 134 109 111 175 235 184 347 4 48 9 66
15 55 5 -9 15 -13 25 -9 13 5 15 2 10 -18 -10 -40 12 -98 55 -145 44 -48 172
-134 251 -169 72 -31 202 -58 243 -50 41 7 64 45 64 102 -1 79 -48 276 -84
347 -40 81 -46 71 78 137 l78 42 -5 46 c-3 25 -8 55 -12 66 -5 16 2 24 31 40
48 26 109 107 136 181 12 33 23 94 26 140 9 162 -46 254 -199 334 -43 22 -79
42 -79 44 0 2 26 13 58 25 72 26 136 71 163 114 16 25 19 45 17 94 -5 80 -41
135 -113 172 -46 24 -60 26 -180 26 -104 0 -148 -5 -220 -24 -72 -19 -90 -21
-94 -10 -10 32 -105 118 -151 138 -122 53 -284 64 -352 24 -78 -45 -136 -193
-125 -321 3 -37 9 -77 13 -89 5 -20 3 -23 -18 -23 -40 0 -143 -58 -184 -102
l-37 -42 -16 24 c-71 108 -154 180 -284 245 -48 24 -114 49 -147 56 -33 6 -60
13 -60 15 0 1 4 14 9 27 9 23 13 24 153 30 214 10 457 64 445 100 -2 8 -27 10
-83 7 -172 -11 -478 -5 -529 9 -72 21 -169 71 -258 135 -42 31 -82 56 -87 56
-21 0 -9 -30 36 -89 47 -63 118 -125 193 -169 42 -25 43 -26 37 -66 -23 -146
-18 -198 23 -223 15 -9 23 -9 37 2 16 11 16 15 5 29 -12 14 -12 26 -2 70 l12
53 60 -14 c126 -29 248 -101 341 -202 65 -70 98 -134 127 -247 55 -214 42
-363 -42 -507 -41 -70 -50 -73 -80 -28 -31 46 -78 84 -133 107 -21 9 -47 23
-58 32 -27 25 -165 23 -230 -2 -59 -23 -150 -91 -273 -203 -85 -78 -93 -83
-115 -72 -13 7 -26 16 -29 21 -3 5 -4 75 -1 156 8 247 -33 388 -141 488 -29
27 -61 54 -71 59 -16 9 -16 15 -5 60 37 152 141 257 314 317 44 15 116 31 159
35 54 5 81 13 84 22 4 12 -10 13 -80 8 -46 -4 -106 -14 -134 -22 -60 -18 -59
-18 -45 -1 38 45 29 130 -15 146 -16 7 -24 17 -24 33 0 65 -76 103 -135 68
-32 -18 -37 -19 -65 -5 -19 10 -41 13 -60 9 -42 -9 -90 -52 -90 -80 0 -16 -7
-25 -23 -29 -13 -3 -35 -17 -49 -31 -22 -22 -27 -23 -38 -10 -23 27 -65 18
-102 -22 -18 -21 -46 -44 -61 -50 -15 -7 -27 -17 -27 -23 0 -5 -15 -10 -34
-10 -19 0 -42 -3 -51 -6 -21 -8 -45 -56 -45 -89 0 -24 -3 -25 -33 -20 -39 8
-56 -7 -66 -58 -6 -29 -10 -22 -34 66 -33 117 -73 209 -111 255 -38 44 -158
115 -181 106 -16 -7 -17 -2 -13 42 6 67 33 120 74 145 19 11 34 25 34 29 0 5
-19 10 -42 12 l-42 3 45 55 c49 61 115 100 167 100 22 0 32 4 29 13 -3 8 -34
12 -110 12 -58 0 -109 3 -113 7 -4 4 -1 14 5 22 15 17 0 29 -25 19 -15 -5 -14
0 6 36 56 98 197 220 293 250 51 17 46 31 -11 31 -75 0 -190 -37 -277 -89 -83
-50 -139 -74 -149 -64 -15 15 -3 66 31 134 51 103 210 264 303 308 36 17 61
31 55 31 -5 0 5 10 23 22 50 31 27 42 -48 23 -112 -29 -326 -117 -401 -166
-27 -17 -52 -29 -55 -26 -11 11 18 78 57 130 21 28 69 79 107 111 37 33 67 64
67 70 0 20 -77 6 -138 -25 -33 -16 -62 -28 -64 -25 -7 7 26 124 58 203 69 175
129 256 277 376 54 44 78 77 55 77 -5 0 -45 -23 -91 -50z m-512 -316 c0 -14
-9 -39 -20 -55 -12 -15 -41 -70 -65 -121 -25 -51 -45 -86 -45 -77 0 47 100
279 121 279 5 0 9 -12 9 -26z m-644 -62 c-4 -3 -14 2 -24 12 -16 18 -16 18 6
6 13 -6 21 -14 18 -18z m204 -431 c14 -4 27 -15 28 -25 3 -14 0 -17 -12 -13
-8 3 -50 9 -93 13 -70 6 -77 6 -65 -8 9 -12 2 -11 -28 5 -30 14 -38 22 -28 28
15 10 162 10 198 0z m565 -123 c-22 -26 -25 -37 -20 -68 7 -43 -8 -61 -25 -30
-17 31 -4 88 33 145 l32 50 3 -33 c2 -24 -4 -41 -23 -64z m-343 13 c32 -33 58
-68 58 -78 0 -12 -8 -7 -27 20 -14 20 -48 51 -75 68 -26 17 -45 35 -42 40 11
18 29 8 86 -50z m559 -34 c-53 -69 -93 -159 -99 -219 -3 -35 -10 -52 -24 -59
-18 -10 -19 -8 -13 28 3 21 8 54 11 73 8 51 36 98 99 168 31 34 59 62 61 62 3
0 -13 -24 -35 -53z m-921 -179 c16 -18 30 -36 30 -39 0 -6 -126 54 -137 65 -3
3 12 6 35 6 35 0 47 -6 72 -32z m245 -18 c3 -5 2 -10 -4 -10 -5 0 -13 5 -16
10 -3 6 -2 10 4 10 5 0 13 -4 16 -10z m815 -46 c-8 -8 -23 -20 -34 -25 -15 -7
-13 -3 7 15 31 29 47 35 27 10z m-509 -47 c-13 -13 -26 -3 -16 12 3 6 11 8 17
5 6 -4 6 -10 -1 -17z m203 -18 c-10 -16 -24 -9 -24 12 0 18 2 19 15 9 8 -7 12
-16 9 -21z m-396 -42 c26 -24 29 -40 5 -34 -10 3 -35 8 -57 12 l-38 6 22 24
c24 26 31 25 68 -8z m34 -67 c41 -12 87 -45 76 -55 -12 -12 -188 51 -188 67 0
11 47 6 112 -12z m-270 -31 c27 -18 47 -34 44 -36 -7 -7 -156 60 -156 70 0 17
63 -3 112 -34z m498 -55 c0 -26 -22 -25 -51 2 -40 38 -36 45 11 27 22 -9 40
-22 40 -29z m-120 16 c0 -5 -2 -10 -4 -10 -3 0 -8 5 -11 10 -3 6 -1 10 4 10 6
0 11 -4 11 -10z m360 -63 c0 -2 -9 -21 -19 -43 -10 -21 -33 -81 -51 -131 -32
-91 -41 -102 -70 -83 -11 7 -12 14 -3 32 6 13 11 33 11 46 1 13 9 36 19 52 55
87 88 130 100 130 7 0 13 -1 13 -3z m127 -145 c-24 -27 -47 -99 -47 -148 0
-33 -4 -44 -15 -44 -11 0 -14 7 -11 23 15 68 27 135 25 143 -5 29 7 39 50 43
11 1 11 -3 -2 -17z m-913 -27 c19 -14 18 -15 -16 -15 -37 0 -59 14 -36 23 21
9 32 7 52 -8z m2400 -186 c95 -45 180 -58 366 -60 209 -2 162 -16 -85 -27
l-170 -7 -28 -80 -28 -80 7 86 6 86 -55 31 c-30 17 -81 56 -114 87 l-58 57 48
-32 c26 -17 76 -45 111 -61z m-1894 61 c0 -5 -2 -10 -4 -10 -3 0 -8 5 -11 10
-3 6 -1 10 4 10 6 0 11 -4 11 -10z m159 -4 c19 -23 -4 -28 -24 -6 -15 17 -16
20 -3 20 9 0 21 -6 27 -14z m2864 -25 c-59 -6 -63 -8 -122 -68 -54 -56 -60
-65 -51 -87 11 -31 44 -52 92 -61 24 -5 38 -13 41 -26 4 -15 14 -19 44 -19 21
0 67 -8 103 -19 69 -19 110 -14 110 14 0 9 9 15 23 15 30 0 43 -10 50 -39 14
-54 -45 -125 -123 -149 -48 -15 -276 -7 -304 11 -11 7 -38 21 -58 31 -47 21
-52 40 -46 157 4 72 11 100 34 146 40 79 87 104 193 101 l76 -1 -62 -6z m94
-7 c-3 -3 -12 -4 -19 -1 -8 3 -5 6 6 6 11 1 17 -2 13 -5z m-2959 -20 c-4 -20
-34 -41 -44 -31 -8 8 24 47 38 47 5 0 8 -7 6 -16z m281 2 c10 -12 8 -13 -8 -9
-12 3 -18 9 -15 14 7 12 10 11 23 -5z m1125 -2 c21 -21 20 -47 -3 -68 -16 -14
-24 -15 -63 -5 -39 11 -45 16 -42 36 1 13 8 30 14 38 16 20 75 19 94 -1z
m-1774 -4 c0 -5 -6 -10 -14 -10 -8 0 -18 5 -21 10 -3 6 3 10 14 10 12 0 21 -4
21 -10z m1622 -15 c17 -38 -6 -85 -42 -85 -34 0 -80 35 -80 60 0 26 38 50 77
50 26 0 36 -6 45 -25z m1618 -14 c0 -5 -7 -17 -16 -25 -23 -24 -13 -48 26 -63
19 -7 25 -11 13 -9 -43 8 -34 -13 19 -44 29 -17 44 -29 33 -26 -11 2 -34 7
-51 11 -20 4 -34 14 -37 26 -4 15 -14 19 -47 19 -23 0 -50 5 -61 10 -18 10
-17 14 23 60 32 37 50 50 71 50 15 0 27 -4 27 -9z m-2586 -27 c14 -5 13 -9 -4
-31 -11 -14 -20 -37 -20 -50 l0 -24 -33 25 c-19 15 -39 26 -45 26 -18 0 -15
11 10 37 21 22 59 30 92 17z m-403 -27 c-10 -9 -11 -8 -5 6 3 10 9 15 12 12 3
-3 0 -11 -7 -18z m3106 11 c28 -11 28 -12 4 -16 -32 -5 -91 7 -91 18 0 14 53
12 87 -2z m98 -10 c8 -13 25 -23 36 -23 23 0 70 -68 56 -81 -13 -13 -62 11
-61 29 1 9 -1 15 -5 14 -14 -5 -56 40 -57 61 0 12 3 22 7 22 4 0 15 -10 24
-22z m-1973 -25 c21 -19 23 -41 4 -65 -17 -22 -34 -23 -58 -1 -24 21 -23 38 4
63 26 24 27 24 50 3z m366 5 c7 -7 12 -20 12 -30 0 -26 -45 -68 -72 -68 -21 0
-23 4 -20 46 3 32 8 44 17 40 7 -2 16 2 19 10 7 17 28 18 44 2z m-134 -14 c21
-20 20 -53 -1 -76 -24 -27 -83 -21 -83 8 0 8 -4 14 -10 14 -17 0 -11 16 15 44
27 29 56 33 79 10z m2184 -1 c-6 -30 -48 -47 -83 -33 l-30 12 24 19 c31 25 94
26 89 2z m171 -18 c16 -8 39 -26 50 -41 18 -23 19 -28 6 -41 -9 -8 -23 -41
-32 -74 -19 -68 -60 -115 -132 -151 -39 -19 -64 -23 -166 -25 -65 -1 -125 -5
-132 -7 -7 -3 -21 6 -31 19 -20 25 -20 43 -6 165 3 31 1 73 -5 95 -11 42 -4
55 31 55 16 0 16 -2 1 -28 -18 -31 -11 -82 11 -82 7 0 21 -9 30 -19 26 -29 61
-33 118 -16 46 13 54 13 74 0 31 -20 31 -20 49 15 16 30 17 31 74 24 57 -6 58
-6 63 19 4 18 -2 33 -19 49 -13 13 -32 32 -43 42 -40 39 -15 40 59 1z m-3689
4 c0 -6 -16 -30 -36 -54 -35 -43 -36 -44 -60 -28 -24 15 -24 17 -8 42 9 14 23
32 32 39 19 15 72 16 72 1z m404 -9 c6 0 23 -24 37 -52 21 -45 23 -58 15 -83
-8 -22 -16 -29 -30 -27 -10 2 -22 -2 -26 -8 -6 -9 -11 -6 -20 11 -7 13 -22 34
-33 47 -11 12 -16 22 -10 22 6 0 14 12 17 28 11 45 30 86 34 74 2 -7 9 -12 16
-12z m559 -1 c3 -12 0 -28 -9 -36 -8 -8 -14 -21 -14 -29 0 -23 -36 -16 -50 11
-12 23 -11 28 10 50 29 31 56 32 63 4z m-1085 -9 c-7 -10 -14 -18 -15 -16 -6
6 9 36 18 36 5 0 4 -9 -3 -20z m3069 14 c-3 -3 -12 -4 -19 -1 -8 3 -5 6 6 6
11 1 17 -2 13 -5z m411 -1 c-4 -12 45 -73 58 -73 23 0 23 -28 1 -34 -39 -10
-56 -6 -62 14 -4 13 -15 20 -31 20 -22 0 -24 2 -13 23 18 34 54 73 47 50z
m-2174 -15 c2 -7 8 -29 15 -48 10 -31 9 -37 -10 -52 -12 -10 -34 -18 -50 -18
-23 0 -29 4 -29 23 0 14 9 26 23 32 15 7 23 20 25 43 3 31 20 44 26 20z
m-1006 -22 c40 -21 65 -52 55 -69 -4 -8 -30 -38 -56 -68 -48 -54 -48 -54 -66
-33 -9 12 -26 24 -38 28 -11 4 -27 14 -36 24 -15 16 -13 21 14 65 23 37 34 47
48 42 10 -3 24 1 31 10 15 18 15 18 48 1z m2862 -21 c0 -21 -21 -28 -51 -16
-24 10 -24 10 -1 10 12 1 22 6 22 11 0 6 7 10 15 10 8 0 15 -7 15 -15z m-2007
-21 c18 -9 34 -18 36 -20 7 -7 -42 -54 -55 -54 -17 0 -34 32 -34 64 0 30 9 32
53 10z m-163 -47 c11 -2 6 -11 -19 -35 -18 -18 -37 -29 -42 -26 -12 7 -11 57
2 91 l10 28 17 -27 c9 -15 23 -29 32 -31z m2617 37 c-3 -3 -12 -4 -19 -1 -8 3
-5 6 6 6 11 1 17 -2 13 -5z m-2077 -12 c0 -6 -84 -62 -94 -62 -2 0 -11 11 -20
25 -16 24 -15 25 16 34 41 11 98 14 98 3z m-1657 -54 c8 -12 7 -24 -2 -42 -22
-40 -41 -40 -79 -3 l-34 35 23 31 c23 31 23 31 52 13 17 -9 35 -25 40 -34z
m1009 10 c-2 -20 1 -45 6 -55 14 -26 4 -45 -17 -34 -9 5 -26 9 -36 8 -16 -2
-21 5 -23 36 -4 49 20 89 51 85 19 -3 22 -8 19 -40z m-843 -10 c14 -25 14 -29
-1 -40 -9 -7 -28 -32 -42 -56 -33 -52 -48 -59 -82 -37 -31 20 -27 49 12 106
13 19 24 39 24 45 0 5 17 9 37 9 30 0 40 -5 52 -27z m425 0 c22 -31 20 -64 -5
-104 -23 -38 -29 -40 -69 -19 -33 17 -32 23 10 105 23 45 42 50 64 18z m917
12 c39 -21 11 -76 -41 -80 -40 -3 -46 -1 -57 22 -8 19 -5 24 31 44 23 12 42
22 44 23 2 0 12 -4 23 -9z m-289 -25 c17 -15 26 -30 22 -39 -3 -9 -9 -16 -13
-16 -3 -1 -23 -3 -43 -6 -38 -6 -38 -5 -38 28 0 34 15 58 35 58 5 0 22 -11 37
-25z m138 -45 c0 -43 -18 -63 -52 -58 -35 5 -37 60 -3 94 33 33 55 19 55 -36z
m-465 -20 c19 -18 21 -25 11 -56 -15 -48 -47 -44 -59 9 -15 64 7 86 48 47z
m-568 -14 l28 -24 -21 -24 c-31 -33 -45 -64 -38 -82 11 -30 -24 -17 -60 22
-46 48 -49 94 -8 115 40 22 68 20 99 -7z m789 9 c4 -9 18 -22 33 -30 l26 -14
-26 -1 c-14 0 -34 -6 -44 -14 -21 -15 -55 -2 -55 22 0 43 53 72 66 37z m-1180
-52 c17 -13 35 -23 41 -23 36 0 60 -79 39 -127 -11 -28 -26 -29 -57 -5 l-22
19 21 45 c24 48 27 62 13 54 -5 -4 -11 -1 -13 6 -6 17 -28 0 -28 -21 0 -30
-34 -65 -55 -57 -15 5 -17 15 -12 66 8 89 10 90 73 43z m1505 -12 c-22 -42
-74 -70 -100 -54 -26 17 -25 40 3 47 14 3 33 17 41 29 12 18 22 23 45 19 l29
-4 -18 -37z m-721 -1 c7 -16 9 -41 6 -55 l-6 -25 -61 31 c-34 17 -58 34 -53
39 5 4 26 13 47 20 20 6 37 16 37 21 0 18 17 0 30 -31z m40 -4 c0 -12 -5 -7
-19 24 -11 24 -11 24 3 6 9 -11 16 -24 16 -30z m495 20 c19 -18 25 -31 20 -45
-7 -23 -13 -25 -32 -13 -24 15 -38 82 -18 82 2 0 16 -11 30 -24z m1658 13 c12
-6 32 -21 44 -32 21 -18 26 -19 62 -7 49 16 109 3 196 -43 87 -46 127 -91 159
-178 30 -81 54 -257 47 -345 -1 -6 -18 -16 -38 -22 -21 -7 -51 -23 -68 -36
l-30 -24 -10 36 c-6 19 -16 37 -22 39 -19 7 -63 -42 -69 -77 -6 -28 -9 -29
-52 -27 -41 2 -46 -1 -51 -22 -6 -22 -7 -22 -23 12 -9 20 -42 65 -73 102 -58
68 -120 183 -131 244 l-7 34 -18 -34 c-11 -21 -18 -27 -19 -16 0 22 -6 22 -37
-3 -14 -11 -29 -17 -34 -14 -5 3 -9 -3 -9 -13 0 -10 -4 -24 -9 -32 -17 -26
-35 9 -55 104 -10 50 -26 117 -37 149 l-18 59 26 31 c76 90 213 147 276 115z
m-1903 -11 c-1 -49 -14 -87 -33 -92 -48 -12 -62 35 -22 78 25 27 55 35 55 14z
m-840 -8 c0 -5 -4 -10 -10 -10 -5 0 -10 5 -10 10 0 6 5 10 10 10 6 0 10 -4 10
-10z m3292 -26 l16 -36 -51 -49 -51 -49 -36 42 -37 42 47 23 c26 13 55 32 65
43 24 26 27 25 47 -16z m-2915 -10 c-7 -7 -57 18 -57 28 0 5 14 1 31 -7 17 -9
29 -19 26 -21z m-68 1 c38 -19 43 -48 20 -110 -29 -79 -37 -82 -109 -45 -34
17 -60 35 -58 40 7 20 99 130 108 130 6 0 24 -7 39 -15z m715 -21 c20 -30 18
-53 -6 -68 -22 -13 -47 0 -67 36 -20 34 -8 58 28 58 20 0 34 -8 45 -26z m-124
-8 c0 -13 10 -36 22 -51 l22 -28 -38 6 c-21 3 -41 8 -43 11 -3 3 -2 23 2 45 7
45 35 58 35 17z m-909 4 c11 -7 19 -21 19 -37 0 -38 -39 -110 -75 -138 -29
-22 -34 -23 -54 -9 -30 22 -26 57 14 131 37 65 54 75 96 53z m465 -41 c30 -18
33 -24 20 -31 -8 -5 -28 -30 -42 -56 -47 -82 -59 -91 -104 -80 l-38 10 28 41
c27 41 60 111 60 128 0 5 -7 9 -16 9 -8 0 -13 4 -9 9 7 13 56 -2 101 -30z
m293 5 c10 -23 9 -24 -28 -24 -21 0 -53 -3 -70 -6 -20 -4 -31 -2 -31 4 0 6 7
9 15 6 9 -4 17 1 20 10 3 9 7 22 9 29 7 23 72 9 85 -19z m-159 6 c0 -11 -4
-20 -9 -20 -5 0 -7 9 -4 20 3 11 7 20 9 20 2 0 4 -9 4 -20z m590 -33 c0 -14
-5 -18 -20 -14 -11 3 -23 1 -26 -4 -7 -11 -74 -12 -74 -1 0 13 23 38 44 49 26
14 76 -6 76 -30z m2404 28 c127 -33 248 -112 288 -188 33 -61 33 -226 0 -308
-25 -64 -89 -142 -134 -165 -30 -15 -31 -15 -68 21 -20 20 -75 56 -121 80 -95
50 -97 57 -7 20 34 -14 63 -25 66 -25 2 0 -19 18 -47 40 -33 26 -56 38 -67 33
-15 -6 -16 2 -12 73 3 63 12 95 38 152 18 40 36 72 41 72 9 0 43 99 36 106
-11 12 -58 -11 -93 -44 -69 -69 -176 -253 -190 -329 -3 -18 -10 -33 -16 -33
-5 0 -6 5 -3 10 4 6 2 16 -3 23 -5 7 -12 62 -15 122 -3 72 -12 132 -26 175
l-20 65 28 35 c48 60 94 80 186 80 45 0 107 -7 139 -15z m-2354 -24 c0 -29
-11 -51 -25 -51 -9 0 -10 8 -1 35 12 38 26 47 26 16z m-1220 -65 c-30 -49 -36
-46 -8 3 12 22 24 38 26 36 3 -2 -6 -20 -18 -39z m146 -25 l55 -43 -46 -35
c-35 -28 -44 -40 -39 -56 5 -16 3 -19 -10 -14 -11 5 -16 1 -16 -13 0 -29 -11
-25 -57 23 -55 57 -67 81 -47 98 8 7 26 32 40 55 30 51 37 50 120 -15z m661
-17 c1 -44 6 -72 16 -81 26 -26 35 -6 29 66 l-5 69 84 -4 c46 -2 118 -6 160
-8 81 -4 119 -17 119 -42 0 -10 7 -13 23 -9 17 5 31 -4 62 -35 37 -38 38 -41
15 -36 -14 3 -56 12 -93 20 -66 13 -68 13 -51 -5 18 -20 13 -49 -9 -49 -7 0
-23 13 -35 30 -12 16 -32 35 -45 41 -13 7 -7 -2 15 -23 36 -33 81 -115 72
-129 -2 -4 -20 -10 -41 -14 -64 -12 -111 -41 -118 -75 -9 -43 -39 -39 -71 9
l-26 40 -31 -20 c-24 -14 -51 -19 -104 -19 l-71 0 4 -172 c8 -328 14 -423 33
-541 l18 -118 -31 7 c-63 13 -162 56 -206 88 -85 62 -146 223 -171 453 -44
408 84 619 381 622 l75 1 2 -66z m-1070 13 c18 -12 33 -25 33 -28 0 -3 -13
-25 -30 -47 -29 -40 -31 -41 -50 -25 -16 14 -20 30 -20 76 0 66 4 67 67 24z
m482 -13 c14 -12 -19 -1 -35 12 -18 14 -18 14 6 3 14 -6 27 -13 29 -15z m-400
-70 l20 -26 -23 -36 c-19 -29 -30 -37 -51 -35 -54 4 -57 20 -17 73 20 27 40
49 44 49 4 1 16 -11 27 -25z m450 15 c18 -6 44 -22 57 -34 22 -21 23 -26 12
-51 -15 -37 -48 -80 -48 -65 0 19 -20 12 -44 -15 l-22 -26 -40 20 c-50 26 -71
49 -58 66 5 7 26 36 47 64 42 56 47 58 96 41z m-280 -101 l32 -27 -37 -51
c-52 -72 -63 -76 -107 -34 -20 20 -37 42 -37 49 0 8 20 35 44 61 48 50 49 50
105 2z m1416 -62 c8 -27 15 -59 14 -70 0 -12 -11 13 -23 55 -12 41 -26 82 -30
90 -4 8 0 5 9 -6 8 -11 22 -42 30 -69z m-1697 2 c17 -17 15 -35 -7 -57 -10
-10 -21 -25 -24 -32 -3 -8 -6 12 -6 44 -1 58 10 72 37 45z m322 -18 c-8 -16
-8 -20 4 -20 7 0 23 -8 35 -17 l22 -18 -37 -68 c-32 -61 -38 -67 -53 -55 -9 8
-32 28 -53 45 l-36 31 24 13 c14 7 41 34 61 61 39 51 50 61 33 28z m182 -62
c-16 -16 -25 -19 -33 -11 -16 16 -2 33 29 33 l26 0 -22 -22z m-369 -16 l27
-28 -33 -31 c-58 -55 -71 -58 -106 -18 -17 20 -31 39 -31 44 0 19 67 57 106
60 5 1 22 -12 37 -27z m2777 -9 c125 -41 197 -101 240 -198 61 -141 113 -346
113 -445 0 -93 -21 -150 -93 -254 -64 -92 -126 -150 -197 -183 -62 -28 -163
-43 -163 -23 0 6 -27 39 -60 71 l-60 59 22 77 c41 149 25 359 -39 520 l-25 63
28 32 c15 18 44 68 64 111 32 68 38 76 50 62 20 -25 86 -55 118 -55 15 0 37 7
48 15 23 17 17 19 -24 4 -35 -12 -64 0 -120 48 -31 26 -32 31 -26 76 l7 47 36
-6 c20 -4 56 -13 81 -21z m-2715 -53 c4 -6 1 -18 -6 -26 -11 -13 -10 -18 3
-25 10 -5 31 -21 47 -35 29 -24 30 -27 17 -52 -8 -15 -26 -38 -40 -51 -23 -22
-28 -23 -51 -11 -14 7 -25 17 -25 21 0 4 -11 21 -25 37 -21 25 -22 30 -7 28
11 0 18 7 20 22 4 26 -1 27 -33 6 -14 -9 -31 -14 -37 -11 -24 9 -33 6 -30 -10
2 -11 -2 -13 -17 -8 -19 6 -20 3 -16 -27 4 -25 3 -28 -3 -13 -5 11 -11 49 -14
85 l-4 65 34 -37 c19 -21 38 -38 43 -38 11 0 93 56 109 75 15 18 26 19 35 5z
m192 -32 c-3 -7 -5 -2 -5 12 0 14 2 19 5 13 2 -7 2 -19 0 -25z m113 -23 c0 -8
-13 -30 -30 -48 -16 -19 -30 -39 -30 -45 0 -5 -7 -12 -15 -16 -19 -7 -76 43
-57 51 6 2 12 13 12 23 0 26 17 34 29 13 9 -17 12 -16 38 10 30 30 53 35 53
12z m2850 -72 l-1 -78 -14 40 c-11 30 -12 49 -4 78 5 20 12 37 14 37 3 0 5
-35 5 -77z m-968 54 c7 -7 38 -25 68 -39 88 -40 135 -100 186 -236 54 -141 69
-327 39 -460 -22 -94 -20 -93 -85 -76 -79 20 -252 18 -394 -7 -77 -13 -137
-18 -167 -14 -54 8 -86 -5 -98 -38 -6 -15 -4 -27 7 -40 10 -12 18 -49 23 -115
4 -53 12 -109 18 -124 6 -16 8 -28 5 -28 -23 0 -135 73 -190 123 -71 65 -106
124 -131 220 -27 106 -4 276 52 393 32 66 101 144 127 144 13 0 18 5 15 14 -4
9 27 44 83 95 121 108 190 159 247 181 57 23 175 27 195 7z m-1804 -129 c-3
-43 -8 -81 -11 -84 -12 -12 -66 17 -60 32 3 8 -5 18 -21 25 l-25 12 45 59 c39
50 48 57 61 46 12 -10 14 -29 11 -90z m2689 60 c6 -7 13 -23 16 -36 8 -33 -13
-23 -36 16 -16 26 -16 32 -4 32 8 0 19 -6 24 -12z m194 -7 l23 -18 -30 -46
c-16 -25 -44 -70 -63 -101 -37 -59 -56 -73 -77 -55 -22 18 -16 39 16 57 16 9
30 23 30 30 0 6 4 12 9 12 14 0 31 60 25 86 -7 26 10 54 31 54 7 0 23 -8 36
-19z m129 -52 c-11 -26 -70 -80 -70 -64 0 11 22 49 48 84 29 39 41 27 22 -20z
m-3190 -68 c0 -22 -58 -91 -76 -91 -24 0 -84 67 -84 94 0 22 37 77 65 99 13 9
95 -79 95 -102z m2880 18 c0 -4 -6 -12 -14 -18 -10 -9 -17 -6 -28 11 -8 13
-19 34 -23 47 -7 23 -7 23 29 -5 20 -16 36 -32 36 -35z m-3187 22 c41 -27 60
-56 44 -69 -6 -5 -21 -12 -32 -14 -12 -2 -19 -10 -17 -20 5 -30 -16 -28 -27 2
-5 17 -15 30 -20 30 -16 0 -24 46 -11 69 13 26 27 26 63 2z m197 -156 c29 -31
31 -36 13 -31 -17 5 -27 -1 -48 -29 -35 -45 -61 -45 -115 3 -40 35 -42 40 -30
62 7 14 26 39 44 56 l31 30 35 -27 c19 -15 51 -44 70 -64z m207 69 l44 -25
-38 -28 c-34 -26 -40 -27 -55 -13 -14 12 -20 12 -33 2 -14 -12 -14 -15 1 -37
23 -36 5 -49 -37 -26 -42 22 -40 43 7 96 19 20 34 42 34 47 0 17 32 11 77 -16z
m2763 4 c0 -19 -2 -20 -10 -8 -13 19 -13 30 0 30 6 0 10 -10 10 -22z m-2684
-12 c10 -8 17 -17 14 -19 -3 -3 -16 3 -30 13 -29 22 -14 27 16 6z m3109 5 l40
-7 -49 -17 c-62 -21 -104 -22 -146 -1 -24 12 -29 19 -19 25 17 10 119 11 174
0z m-1919 -32 c3 -6 -4 -21 -16 -33 -20 -18 -22 -19 -16 -3 3 10 6 25 6 33 0
17 16 19 26 3z m-1194 -33 c-10 -14 -34 -37 -53 -52 -23 -19 -18 -11 16 24 53
56 68 67 37 28z m2902 9 c3 -8 1 -15 -4 -15 -6 0 -10 7 -10 15 0 8 2 15 4 15
2 0 6 -7 10 -15z m-49 -32 c15 -34 14 -39 -2 -61 -10 -13 -33 -33 -52 -44
l-33 -21 7 34 c6 31 53 129 61 129 2 0 11 -17 19 -37z m-2778 -100 c15 -61 12
-113 -7 -113 -6 0 -9 6 -7 13 1 6 -7 12 -18 12 -37 0 -92 43 -99 77 -5 27 0
37 41 82 l48 51 13 -30 c8 -16 21 -57 29 -92z m2678 68 c-4 -9 -9 -31 -12 -48
-8 -48 -17 -40 -31 25 -17 84 -16 86 19 62 21 -15 28 -27 24 -39z m395 -3 c34
-47 38 -68 12 -68 -10 0 -28 -7 -41 -16 -21 -15 -23 -22 -18 -75 3 -33 2 -59
-3 -59 -11 0 -121 83 -144 109 -11 11 -17 24 -13 27 3 3 10 -4 17 -15 12 -24
50 -28 50 -6 0 8 -6 32 -14 52 -33 89 -34 88 50 90 l75 2 29 -41z m-3396 -48
c-13 -13 -71 -30 -78 -23 -3 3 7 21 21 40 l26 34 21 -20 c14 -14 17 -24 10
-31z m-86 -66 c13 -4 22 -14 22 -26 0 -11 -3 -18 -7 -16 -5 2 -21 10 -36 18
-26 13 -30 12 -38 -3 -14 -24 -49 -22 -49 2 0 11 6 22 13 24 17 8 68 8 95 1z
m212 -18 c46 -25 63 -46 36 -46 -9 0 -16 -4 -16 -9 0 -5 -13 -14 -30 -20 -16
-5 -30 -14 -30 -18 0 -5 -21 -6 -47 -3 -53 6 -56 14 -22 61 10 15 19 34 19 43
0 23 38 20 90 -8z m-130 -15 c-5 -11 -15 -23 -22 -27 -7 -5 -8 -2 -3 7 21 37
44 55 25 20z m241 -58 c13 -16 12 -17 -3 -4 -17 13 -22 21 -14 21 2 0 10 -8
17 -17z m54 -53 c-16 -4 -39 -8 -50 -8 -16 0 -15 2 5 8 14 4 36 8 50 8 22 0
22 -1 -5 -8z m79 -54 c21 -28 21 -29 2 -40 -11 -6 -37 -26 -58 -45 l-39 -34
-24 23 c-19 18 -25 34 -25 66 l0 42 48 10 c64 13 72 12 96 -22z m145 -98 c12
-31 -1 -44 -60 -63 -51 -17 -119 -14 -119 5 0 11 -2 11 60 15 35 3 50 10 70
33 31 37 38 38 49 10z m-409 8 c0 -2 -7 -7 -16 -10 -8 -3 -12 -2 -9 4 6 10 25
14 25 6z m0 -77 c14 -9 42 -20 63 -24 32 -5 36 -9 27 -21 -31 -37 -140 3 -140
51 0 28 2 27 50 -6z m2157 -4 c28 -8 53 -22 57 -30 3 -8 12 -12 19 -9 34 13
142 -129 193 -253 20 -51 20 -57 8 -150 -12 -84 -12 -100 1 -126 8 -17 15 -33
15 -36 0 -3 -46 -5 -102 -3 -79 3 -124 -2 -197 -18 -181 -42 -295 -8 -431 129
-112 113 -160 220 -160 356 0 39 -6 69 -16 83 -8 12 -12 27 -9 32 3 6 41 10
83 11 42 0 106 6 142 14 93 19 333 19 397 0z"/>
<path d="M4741 2864 c0 -11 3 -14 6 -6 3 7 2 16 -1 19 -3 4 -6 -2 -5 -13z"/>
<path d="M1632 2348 c21 -31 73 -66 122 -80 94 -27 266 -2 266 39 0 11 -6 10
-32 -3 -18 -10 -65 -19 -104 -22 -88 -6 -169 16 -214 58 -38 35 -59 40 -38 8z"/>
<path d="M830 2010 c0 -5 5 -10 10 -10 6 0 10 5 10 10 0 6 -4 10 -10 10 -5 0
-10 -4 -10 -10z"/>
<path d="M2964 1985 c-16 -7 -35 -25 -42 -40 -12 -26 -11 -30 15 -51 49 -40
91 -56 120 -47 15 5 29 15 31 23 4 10 0 11 -14 5 -34 -15 -75 -9 -100 17 -40
40 -3 84 47 57 20 -10 21 -12 5 -21 -35 -19 15 -38 58 -22 22 9 20 27 -7 52
-34 32 -77 42 -113 27z"/>
<path d="M1786 1106 c-54 -20 -90 -49 -94 -73 -2 -15 -13 -23 -38 -27 -38 -8
-100 -56 -109 -87 -6 -16 -12 -19 -41 -13 -28 5 -40 2 -60 -17 -26 -24 -44
-75 -44 -126 0 -29 -2 -31 -27 -24 -19 5 -29 16 -35 38 -5 19 -17 34 -29 38
-57 18 -158 -37 -180 -99 -10 -28 -17 -35 -31 -30 -31 9 -57 -6 -66 -38 -6
-23 -14 -32 -30 -33 -58 -4 -110 -99 -97 -176 6 -35 4 -40 -17 -48 -34 -13
-49 -35 -55 -79 -6 -48 28 -95 70 -95 24 1 27 -3 27 -34 0 -59 50 -127 102
-139 24 -5 35 -1 58 21 l27 26 38 -25 c21 -15 52 -26 70 -26 35 0 80 30 90 59
5 15 13 18 50 13 54 -6 97 11 130 50 25 30 34 82 15 93 -19 11 -10 25 15 25
82 0 143 89 100 146 -25 32 -17 34 33 8 55 -30 110 -28 145 4 20 18 25 19 67
6 98 -30 170 -3 170 64 0 10 19 27 46 41 76 41 94 102 45 152 -16 16 -25 32
-20 35 16 10 31 56 31 96 -1 34 2 38 33 44 51 9 66 2 80 -39 16 -47 47 -81 86
-98 34 -13 53 -2 25 15 -96 58 -111 109 -80 261 9 42 13 80 9 83 -15 16 -51
-66 -69 -158 -7 -33 -82 -58 -105 -35 -12 11 -11 20 8 55 29 56 27 97 -6 132
-23 24 -35 28 -79 28 -36 0 -59 -6 -75 -19 -22 -18 -26 -18 -41 -4 -24 22 -96
26 -142 9z m304 -24 l23 -18 -37 4 c-33 4 -36 2 -36 -21 0 -37 -31 -71 -57
-63 -63 20 -11 115 63 116 12 0 32 -8 44 -18z m-285 -32 c10 -30 -3 -41 -46
-38 -46 2 -50 24 -9 45 35 18 48 16 55 -7z m-195 -140 c-6 -10 -15 -22 -21
-25 -19 -12 -22 4 -5 30 19 29 42 25 26 -5z m230 -20 c0 -14 -39 -42 -49 -35
-14 8 -14 28 0 42 11 11 49 6 49 -7z m255 -1 c11 -17 -1 -21 -15 -4 -8 9 -8
15 -2 15 6 0 14 -5 17 -11z m-105 -40 c0 -34 -22 -48 -45 -29 -10 8 -13 21 -9
34 14 45 54 41 54 -5z m-549 -70 c-7 -44 -9 -47 -10 -19 -1 36 9 84 15 77 3
-2 0 -28 -5 -58z m-136 1 c4 -6 -5 -10 -20 -10 -34 0 -62 -15 -102 -53 -35
-33 -44 -27 -17 11 30 43 123 78 139 52z m305 -18 c0 -13 -24 -39 -42 -45 -26
-9 -23 19 4 37 25 18 38 20 38 8z m-318 -52 c-3 -39 -18 -53 -44 -39 -23 12
-23 37 -1 61 26 29 49 18 45 -22z m573 -14 c29 -44 -8 -71 -82 -59 -35 6 -40
17 -21 58 16 35 80 36 103 1z m-495 8 c0 -3 -9 -17 -20 -31 l-20 -26 0 25 c0
14 3 28 7 31 8 9 33 9 33 1z m757 -76 c-3 -7 -5 -2 -5 12 0 14 2 19 5 13 2 -7
2 -19 0 -25z m-859 -34 c42 -29 14 -112 -35 -102 -22 4 -30 66 -13 98 13 24
19 25 48 4z m-248 -35 c0 -21 -60 -89 -78 -89 -16 0 4 60 30 87 27 29 48 30
48 2z m520 -1 c0 -16 -31 -48 -47 -48 -14 0 -17 18 -7 44 7 18 54 22 54 4z
m507 6 c-3 -3 -12 -4 -19 -1 -8 3 -5 6 6 6 11 1 17 -2 13 -5z m-37 -69 c0 -15
-29 -35 -51 -35 -7 0 -2 11 11 25 27 28 40 32 40 10z m-305 -25 c16 -16 23
-30 16 -30 -24 0 -81 32 -81 46 0 24 35 15 65 -16z m-648 -85 c5 -16 -22 -55
-39 -55 -9 0 -11 31 -2 54 8 20 33 21 41 1z m353 2 c0 -16 -20 -37 -36 -37
-14 0 -27 28 -18 41 8 14 54 11 54 -4z m200 -27 c0 -17 -63 -50 -95 -49 -27 0
-24 4 30 29 33 16 61 29 63 29 1 1 2 -4 2 -9z m-405 -67 c-28 -20 -41 -16 -20
7 10 11 22 17 28 13 6 -4 3 -12 -8 -20z m285 -76 c0 -13 -10 -33 -22 -45 -27
-24 -78 -46 -87 -36 -3 4 0 9 7 12 24 8 82 64 82 78 0 8 5 14 10 14 6 0 10
-10 10 -23z m-308 -47 c-22 -20 -42 -26 -42 -12 0 15 24 32 44 32 19 0 19 -1
-2 -20z m-177 -30 c11 -17 -5 -32 -21 -19 -8 6 -14 15 -14 20 0 12 27 11 35
-1z m260 -60 c-3 -5 -16 -10 -28 -9 -21 0 -21 1 -2 9 28 12 37 12 30 0z"/>
</g>
</svg>
